<svg xmlns="http://www.w3.org/2000/svg" xmlns:xlink="http://www.w3.org/1999/xlink" width="1040" height="667.88"><rect width="1040" height="667.88" rx="5" ry="5" class="a"/><svg y="0%" x="0%"><circle cx="20" cy="20" r="6" fill="#ff5f58"/><circle cx="40" cy="20" r="6" fill="#ffbd2e"/><circle cx="60" cy="20" r="6" fill="#18c132"/></svg><svg height="607.88" viewBox="0 0 100 60.788" width="1000" x="15" xmlns="http://www.w3.org/2000/svg" xmlns:xlink="http://www.w3.org/1999/xlink" y="50"><style>@keyframes i{0%{transform:translateX(0)}.6%{transform:translateX(-100px)}.8%{transform:translateX(-200px)}93.6%{transform:translateX(-300px)}to{transform:translateX(-600px)}}.a{fill:#282d35}.f{fill:#b9c0cb;white-space:pre}</style><g font-family="Monaco,Consolas,Menlo,'Bitstream Vera Sans Mono','Powerline Symbols',monospace" font-size="1.67"><defs><symbol id="1"><text y="1.67" class="f">#</text><text x="2.004" y="1.67" class="f">jina-airgap</text><text x="14.028" y="1.67" class="f">CLI:</text><text x="19.038" y="1.67" class="f">browsing</text><text x="28.056" y="1.67" class="f">the</text><text x="32.064" y="1.67" class="f">28</text><text x="35.07" y="1.67" class="f">supported</text><text x="45.09" y="1.67" class="f">models</text></symbol><symbol id="2"><text y="1.67" class="f">$</text><text x="2.004" y="1.67" class="f">python3</text><text x="10.02" y="1.67" class="f">jina-airgap.py</text><text x="25.05" y="1.67" class="f">list</text><text x="30.06" y="1.67" class="f">--type</text><text x="37.074" y="1.67" class="f">embedding</text></symbol><symbol id="3"><text y="1.67" class="f">===</text><text x="4.008" y="1.67" class="f">Jina</text><text x="9.018" y="1.67" class="f">AI</text><text x="12.024" y="1.67" class="f">Air-Gapped</text><text x="23.046" y="1.67" class="f">Toolkit</text><text x="31.062" y="1.67" class="f">v0.1.0</text><text x="38.076" y="1.67" class="f">===</text></symbol><symbol id="4"><text y="1.67" class="f">Available</text><text x="10.02" y="1.67" class="f">Models</text><text x="17.034" y="1.67" class="f">(16</text><text x="21.042" y="1.67" class="f">total</text><text x="28.056" y="1.67" class="f">[type=embedding])</text></symbol><symbol id="5"><text x="2.004" y="1.67" class="f">MODEL</text><text x="34.068" y="1.67" class="f">TYPE</text><text x="47.094" y="1.67" class="f">PARAMS</text><text x="56.112" y="1.67" class="f">RELEASED</text></symbol><symbol id="6"><text x="2.004" y="1.67" class="f">------------------------------------------------------------------</text></symbol><symbol id="7"><text x="2.004" y="1.67" class="f">jina-embeddings-v5-omni-small</text><text x="34.068" y="1.67" class="f">embedding</text><text x="47.094" y="1.67" class="f">1.74B</text><text x="56.112" y="1.67" class="f">2026-05-07</text></symbol><symbol id="8"><text x="2.004" y="1.67" class="f">jina-embeddings-v5-omni-nano</text><text x="34.068" y="1.67" class="f">embedding</text><text x="47.094" y="1.67" class="f">1.04B</text><text x="56.112" y="1.67" class="f">2026-05-07</text></symbol><symbol id="9"><text x="2.004" y="1.67" class="f">jina-embeddings-v5-text-small</text><text x="34.068" y="1.67" class="f">embedding</text><text x="47.094" y="1.67" class="f">677M</text><text x="56.112" y="1.67" class="f">2026-02-18</text></symbol><symbol id="10"><text x="2.004" y="1.67" class="f">jina-embeddings-v5-text-nano</text><text x="34.068" y="1.67" class="f">embedding</text><text x="47.094" y="1.67" class="f">239M</text><text x="56.112" y="1.67" class="f">2026-02-18</text></symbol><symbol id="11"><text x="2.004" y="1.67" class="f">jina-code-embeddings-1.5b</text><text x="34.068" y="1.67" class="f">embedding</text><text x="47.094" y="1.67" class="f">1.5B</text><text x="56.112" y="1.67" class="f">2025-09-01</text></symbol><symbol id="12"><text x="2.004" y="1.67" class="f">jina-code-embeddings-0.5b</text><text x="34.068" y="1.67" class="f">embedding</text><text x="47.094" y="1.67" class="f">494M</text><text x="56.112" y="1.67" class="f">2025-09-01</text></symbol><symbol id="13"><text x="2.004" y="1.67" class="f">jina-embeddings-v4</text><text x="34.068" y="1.67" class="f">embedding</text><text x="47.094" y="1.67" class="f">3.8B</text><text x="56.112" y="1.67" class="f">2025-06-24</text></symbol><symbol id="14"><text x="2.004" y="1.67" class="f">jina-clip-v2</text><text x="34.068" y="1.67" class="f">embedding</text><text x="47.094" y="1.67" class="f">865M</text><text x="56.112" y="1.67" class="f">2024-11-05</text></symbol><symbol id="15"><text x="2.004" y="1.67" class="f">jina-embeddings-v3</text><text x="34.068" y="1.67" class="f">embedding</text><text x="47.094" y="1.67" class="f">570M</text><text x="56.112" y="1.67" class="f">2024-09-18</text></symbol><symbol id="16"><text x="2.004" y="1.67" class="f">jina-clip-v1</text><text x="34.068" y="1.67" class="f">embedding</text><text x="47.094" y="1.67" class="f">223M</text><text x="56.112" y="1.67" class="f">2024-06-05</text></symbol><symbol id="17"><text x="2.004" y="1.67" class="f">jina-embeddings-v2-base-es</text><text x="34.068" y="1.67" class="f">embedding</text><text x="47.094" y="1.67" class="f">161M</text><text x="56.112" y="1.67" class="f">2024-02-14</text></symbol><symbol id="a"><path fill="transparent" d="M0 0h100v29H0z"/></symbol><symbol id="b"><path fill="#6f7683" d="M0 0h1.102v2.171H0z"/></symbol></defs><path class="a" d="M0 0h100v60.788H0z"/><g style="animation-duration:1.0775730000000001s;animation-iteration-count:infinite;animation-name:i;animation-timing-function:steps(1,end)"><svg width="700"><svg><use xlink:href="#a"/><use xlink:href="#b" x="-.004"/></svg><svg x="100"><use xlink:href="#a"/><use xlink:href="#b" x="-.004"/></svg><svg x="200"><use xlink:href="#a"/><use xlink:href="#b" x="-.004" y="6.488"/><use xlink:href="#1" y="2.171"/></svg><svg x="300"><use xlink:href="#a"/><use xlink:href="#b" x="-.004" y="10.83"/><use xlink:href="#1" y="2.171"/><use xlink:href="#2" y="6.513"/></svg><svg x="400"><use xlink:href="#a"/><use xlink:href="#b" x="40.996" y="10.83"/><use xlink:href="#1" y="2.171"/><use xlink:href="#2" y="6.513"/><use xlink:href="#3" y="10.855"/></svg><svg x="500"><use xlink:href="#a"/><use xlink:href="#b" x="62.996" y="45.566"/><use xlink:href="#1" y="2.171"/><use xlink:href="#2" y="6.513"/><use xlink:href="#3" y="10.855"/><use xlink:href="#4" y="13.026"/><use xlink:href="#5" y="17.368"/><use xlink:href="#6" y="19.539"/><use xlink:href="#7" y="21.71"/><use xlink:href="#8" y="23.881"/><use xlink:href="#9" y="26.052"/><use xlink:href="#10" y="28.223"/><use xlink:href="#11" y="30.394"/><use xlink:href="#12" y="32.565"/><use xlink:href="#13" y="34.736"/><use xlink:href="#14" y="36.907"/><use xlink:href="#15" y="39.078"/><use xlink:href="#16" y="41.249"/><use xlink:href="#17" y="43.42"/><text x="2.004" y="47.261" class="f">jina-embeddings-v2-base-code</text><text x="34.068" y="47.261" class="f">embedding</text><text x="47.094" y="47.261" class="f">137M</text><text x="56.112" y="47.261" class="f">2024-02</text></svg><svg x="600"><use xlink:href="#a"/><use xlink:href="#b" x="-.004" y="58.592"/><use xlink:href="#1" y="2.171"/><use xlink:href="#2" y="6.513"/><use xlink:href="#3" y="10.855"/><use xlink:href="#4" y="13.026"/><use xlink:href="#5" y="17.368"/><use xlink:href="#6" y="19.539"/><use xlink:href="#7" y="21.71"/><use xlink:href="#8" y="23.881"/><use xlink:href="#9" y="26.052"/><use xlink:href="#10" y="28.223"/><use xlink:href="#11" y="30.394"/><use xlink:href="#12" y="32.565"/><use xlink:href="#13" y="34.736"/><use xlink:href="#14" y="36.907"/><use xlink:href="#15" y="39.078"/><use xlink:href="#16" y="41.249"/><use xlink:href="#17" y="43.42"/><text x="2.004" y="47.261" class="f">jina-embeddings-v2-base-code</text><text x="34.068" y="47.261" class="f">embedding</text><text x="47.094" y="47.261" class="f">137M</text><text x="56.112" y="47.261" class="f">2024-02-05</text><text x="2.004" y="49.432" class="f">jina-embeddings-v2-base-de</text><text x="34.068" y="49.432" class="f">embedding</text><text x="47.094" y="49.432" class="f">161M</text><text x="56.112" y="49.432" class="f">2024-01-15</text><text x="2.004" y="51.603" class="f">jina-embeddings-v2-base-zh</text><text x="34.068" y="51.603" class="f">embedding</text><text x="47.094" y="51.603" class="f">161M</text><text x="56.112" y="51.603" class="f">2024-01-09</text><text x="2.004" y="53.774" class="f">jina-embeddings-v2-base-en</text><text x="34.068" y="53.774" class="f">embedding</text><text x="47.094" y="53.774" class="f">137M</text><text x="56.112" y="53.774" class="f">2023-10-28</text><text x="2.004" y="55.945" class="f">jina-embedding-b-en-v1</text><text x="34.068" y="55.945" class="f">embedding</text><text x="47.094" y="55.945" class="f">110M</text><text x="56.112" y="55.945" class="f">2023-06-17</text></svg></svg></g></g></svg></svg>