<svg xmlns="http://www.w3.org/2000/svg" xmlns:xlink="http://www.w3.org/1999/xlink" width="1040" height="667.88"><rect width="1040" height="667.88" rx="5" ry="5" class="a"/><svg y="0%" x="0%"><circle cx="20" cy="20" r="6" fill="#ff5f58"/><circle cx="40" cy="20" r="6" fill="#ffbd2e"/><circle cx="60" cy="20" r="6" fill="#18c132"/></svg><svg height="607.88" viewBox="0 0 100 60.788" width="1000" x="15" xmlns="http://www.w3.org/2000/svg" xmlns:xlink="http://www.w3.org/1999/xlink" y="50"><style>@keyframes j{0%{transform:translateX(0)}.7%{transform:translateX(-100px)}.9%{transform:translateX(-200px)}94.1%{transform:translateX(-300px)}to{transform:translateX(-500px)}}.a{fill:#282d35}.f{fill:#b9c0cb}.f,.g,.l{white-space:pre}.g{fill:#b9c0cb;font-weight:700}.l{fill:#a8cc8c}</style><g font-family="Monaco,Consolas,Menlo,'Bitstream Vera Sans Mono','Powerline Symbols',monospace" font-size="1.67"><defs><symbol id="1"><text y="1.67" class="f">#</text><text x="2.004" y="1.67" class="f">Phase</text><text x="8.016" y="1.67" class="f">1:</text><text x="11.022" y="1.67" class="f">BUNDLE</text><text x="18.036" y="1.67" class="f">-</text><text x="20.04" y="1.67" class="f">dry-run</text><text x="28.056" y="1.67" class="f">to</text><text x="31.062" y="1.67" class="f">show</text><text x="36.072" y="1.67" class="f">what</text><text x="41.082" y="1.67" class="f">will</text><text x="46.092" y="1.67" class="f">be</text><text x="49.098" y="1.67" class="f">built</text></symbol><symbol id="2"><text x="4.008" y="1.67" class="f">|</text><text x="6.012" y="1.67" class="f">|</text><text x="8.016" y="1.67" class="f">|</text><text x="10.02" y="1.67" class="f">|</text><text x="12.024" y="1.67" class="f">|</text><text x="14.028" y="1.67" class="f">|</text><text x="16.032" y="1.67" class="f">(_|</text><text x="20.04" y="1.67" class="f">|_|</text><text x="26.052" y="1.67" class="f">|</text><text x="28.056" y="1.67" class="f">|</text><text x="31.062" y="1.67" class="f">|</text><text x="33.066" y="1.67" class="f">||</text><text x="37.074" y="1.67" class="f">__/</text><text x="41.082" y="1.67" class="f">(_|</text><text x="45.09" y="1.67" class="f">|</text><text x="48.096" y="1.67" class="f">__/</text><text x="52.104" y="1.67" class="f">\__</text><text x="56.112" y="1.67" class="f">\</text></symbol><symbol id="3"><text x="4.008" y="1.67" class="f">|_|_|_|</text><text x="12.024" y="1.67" class="f">|_|\__,_(_)</text><text x="26.052" y="1.67" class="f">\_|</text><text x="31.062" y="1.67" class="f">|_/</text><text x="35.07" y="1.67" class="f">\___|\__,_|\___|_|___/</text></symbol><symbol id="4"><text x="6.012" y="1.67" class="f">Air-Gapped</text><text x="17.034" y="1.67" class="f">Deployment</text><text x="28.056" y="1.67" class="f">Toolkit</text><text x="36.072" y="1.67" class="f">for</text><text x="40.08" y="1.67" class="f">Jina</text><text x="45.09" y="1.67" class="f">AI</text><text x="48.096" y="1.67" class="f">Models</text><text x="56.112" y="1.67" class="f">v0.1.0</text></symbol><symbol id="5"><text y="1.67" class="g">Dry</text><text x="4.008" y="1.67" class="g">run:</text><text x="9.018" y="1.67" class="g">bundle</text><text x="16.032" y="1.67" class="g">plan</text></symbol><symbol id="6"><text x="2.004" y="1.67" class="f">Model:</text><text x="11.022" y="1.67" class="f">jina-embeddings-v5-text-nano</text></symbol><symbol id="7"><text x="2.004" y="1.67" class="f">HF</text><text x="5.01" y="1.67" class="f">Repo:</text><text x="11.022" y="1.67" class="f">jinaai/jina-embeddings-v5-text-nano</text></symbol><symbol id="8"><text x="2.004" y="1.67" class="f">Type:</text><text x="11.022" y="1.67" class="f">embedding</text><text x="22.044" y="1.67" class="f">|</text><text x="25.05" y="1.67" class="f">Params:</text><text x="33.066" y="1.67" class="f">239M</text><text x="39.078" y="1.67" class="f">|</text><text x="42.084" y="1.67" class="f">VRAM:</text><text x="48.096" y="1.67" class="f">~2GB</text></symbol><symbol id="9"><text x="2.004" y="1.67" class="f">Runtime:</text><text x="11.022" y="1.67" class="f">cpu</text></symbol><symbol id="10"><text x="2.004" y="1.67" class="f">Tag:</text><text x="11.022" y="1.67" class="f">jina/jina-embeddings-v5-text-nano:cpu</text></symbol><symbol id="11"><text x="2.004" y="1.67" class="f">Output:</text><text x="11.022" y="1.67" class="f">jina-embeddings-v5-text-nano-cpu.tar.gz</text></symbol><symbol id="12"><text x="2.004" y="1.67" class="f">Model</text><text x="8.016" y="1.67" class="f">deps:</text></symbol><symbol id="13"><text x="4.008" y="1.67" class="f">transformers==4.48.3</text></symbol><symbol id="14"><text x="4.008" y="1.67" class="f">sentence-transformers==3.4.1</text></symbol><symbol id="15"><text x="4.008" y="1.67" class="f">torch==2.5.1</text></symbol><symbol id="16"><text x="4.008" y="1.67" class="f">einops==0.8.0</text></symbol><symbol id="17"><text x="4.008" y="1.67" class="f">peft==0.14.0</text></symbol><symbol id="18"><text x="4.008" y="1.67" class="f">accelerate==1.2.1</text></symbol><symbol id="19"><text x="4.008" y="1.67" class="f">timm==1.0.12</text></symbol><symbol id="20"><text x="4.008" y="1.67" class="f">huggingface_hub==0.27.1</text></symbol><symbol id="a"><path fill="transparent" d="M0 0h100v29H0z"/></symbol><symbol id="b"><path fill="#6f7683" d="M0 0h1.102v2.171H0z"/></symbol></defs><path class="a" d="M0 0h100v60.788H0z"/><g style="animation-duration:1.072817s;animation-iteration-count:infinite;animation-name:j;animation-timing-function:steps(1,end)"><svg width="600"><svg><use xlink:href="#a"/><use xlink:href="#b" x="-.004"/></svg><svg x="100"><use xlink:href="#a"/><use xlink:href="#b" x="-.004"/></svg><svg x="200"><use xlink:href="#a"/><use xlink:href="#b" x="-.004" y="6.488"/><use xlink:href="#1" y="2.171"/></svg><svg x="300"><use xlink:href="#a"/><use xlink:href="#b" x="-.004" y="10.83"/><use xlink:href="#1" y="2.171"/><text y="8.183" class="f">$</text><text x="2.004" y="8.183" class="f">python3</text><text x="10.02" y="8.183" class="f">jina-airgap.py</text><text x="25.05" y="8.183" class="f">bundle</text><text x="32.064" y="8.183" class="f">--model</text><text x="40.08" y="8.183" class="f">jina-embeddings-v5-text-nano</text><text x="69.138" y="8.183" class="f">--cpu-only</text><text x="80.16" y="8.183" class="f">--dry-run</text></svg><svg x="400"><use xlink:href="#a"/><use xlink:href="#b" x="15.996" y="60.763"/><text x="5.01" y="6.012" class="f">_</text><text x="7.014" y="6.012" class="f">_</text><text x="21.042" y="6.012" class="f">_</text><text x="26.052" y="6.012" class="f">___</text><text x="31.062" y="6.012" class="f">___</text><text x="56.112" y="6.012" class="f">_</text><text x="4.008" y="8.183" class="f">|</text><text x="6.012" y="8.183" class="f">(_)</text><text x="20.04" y="8.183" class="f">|</text><text x="22.044" y="8.183" class="f">|</text><text x="26.052" y="8.183" class="f">|</text><text x="29.058" y="8.183" class="f">\/</text><text x="33.066" y="8.183" class="f">|</text><text x="55.11" y="8.183" class="f">|</text><text x="57.114" y="8.183" class="f">|</text><text x="4.008" y="10.354" class="f">|</text><text x="6.012" y="10.354" class="f">|_</text><text x="9.018" y="10.354" class="f">_</text><text x="11.022" y="10.354" class="f">__</text><text x="16.032" y="10.354" class="f">__</text><text x="19.038" y="10.354" class="f">_|</text><text x="22.044" y="10.354" class="f">|</text><text x="26.052" y="10.354" class="f">|</text><text x="28.056" y="10.354" class="f">.</text><text x="31.062" y="10.354" class="f">.</text><text x="33.066" y="10.354" class="f">|</text><text x="36.072" y="10.354" class="f">___</text><text x="41.082" y="10.354" class="f">__|</text><text x="45.09" y="10.354" class="f">|</text><text x="47.094" y="10.354" class="f">___|</text><text x="52.104" y="10.354" class="f">|___</text><text x="4.008" y="12.525" class="f">|</text><text x="6.012" y="12.525" class="f">|</text><text x="8.016" y="12.525" class="f">|</text><text x="10.02" y="12.525" class="f">&apos;_</text><text x="13.026" y="12.525" class="f">\</text><text x="15.03" y="12.525" class="f">/</text><text x="17.034" y="12.525" class="f">_`</text><text x="20.04" y="12.525" class="f">|</text><text x="22.044" y="12.525" class="f">|</text><text x="26.052" y="12.525" class="f">|</text><text x="28.056" y="12.525" class="f">|\/|</text><text x="33.066" y="12.525" class="f">|</text><text x="35.07" y="12.525" class="f">/</text><text x="37.074" y="12.525" class="f">_</text><text x="39.078" y="12.525" class="f">\/</text><text x="42.084" y="12.525" class="f">_`</text><text x="45.09" y="12.525" class="f">|/</text><text x="48.096" y="12.525" class="f">_</text><text x="50.1" y="12.525" class="f">\</text><text x="52.104" y="12.525" class="f">/</text><text x="54.108" y="12.525" class="f">__|</text><use xlink:href="#2" y="13.026"/><use xlink:href="#3" y="15.197"/><use xlink:href="#4" y="17.368"/><use xlink:href="#5" y="21.71"/><use xlink:href="#6" y="26.052"/><use xlink:href="#7" y="28.223"/><use xlink:href="#8" y="30.394"/><use xlink:href="#9" y="32.565"/><use xlink:href="#10" y="34.736"/><use xlink:href="#11" y="36.907"/><use xlink:href="#12" y="41.249"/><use xlink:href="#13" y="43.42"/><use xlink:href="#14" y="45.591"/><use xlink:href="#15" y="47.762"/><use xlink:href="#16" y="49.933"/><use xlink:href="#17" y="52.104"/><use xlink:href="#18" y="54.275"/><use xlink:href="#19" y="56.446"/><use xlink:href="#20" y="58.617"/><text x="4.008" y="62.458" class="f">numpy==1.26.</text></svg><svg x="500"><use xlink:href="#a"/><use xlink:href="#b" x="-.004" y="60.763"/><use xlink:href="#2"/><use xlink:href="#3" y="2.171"/><use xlink:href="#4" y="4.342"/><use xlink:href="#5" y="8.684"/><use xlink:href="#6" y="13.026"/><use xlink:href="#7" y="15.197"/><use xlink:href="#8" y="17.368"/><use xlink:href="#9" y="19.539"/><use xlink:href="#10" y="21.71"/><use xlink:href="#11" y="23.881"/><use xlink:href="#12" y="28.223"/><use xlink:href="#13" y="30.394"/><use xlink:href="#14" y="32.565"/><use xlink:href="#15" y="34.736"/><use xlink:href="#16" y="36.907"/><use xlink:href="#17" y="39.078"/><use xlink:href="#18" y="41.249"/><use xlink:href="#19" y="43.42"/><use xlink:href="#20" y="45.591"/><text x="4.008" y="49.432" class="f">numpy==1.26.4</text><text x="4.008" y="51.603" class="f">torchvision==0.20.1</text><text x="2.004" y="55.945" class="f">Dockerfile:</text><text x="14.028" y="55.945" class="f">/home/hanxiao/jina-airgap/docker/Dockerfile.cpu</text><text y="60.287" class="l">Nothing</text><text x="8.016" y="60.287" class="l">built.</text><text x="15.03" y="60.287" class="l">Remove</text><text x="22.044" y="60.287" class="l">--dry-run</text><text x="32.064" y="60.287" class="l">to</text><text x="35.07" y="60.287" class="l">proceed.</text></svg></svg></g></g></svg></svg>