<svg xmlns="http://www.w3.org/2000/svg" xmlns:xlink="http://www.w3.org/1999/xlink" width="1040" height="667.88"><rect width="1040" height="667.88" rx="5" ry="5" class="a"/><svg y="0%" x="0%"><circle cx="20" cy="20" r="6" fill="#ff5f58"/><circle cx="40" cy="20" r="6" fill="#ffbd2e"/><circle cx="60" cy="20" r="6" fill="#18c132"/></svg><svg height="607.88" viewBox="0 0 100 60.788" width="1000" x="15" xmlns="http://www.w3.org/2000/svg" xmlns:xlink="http://www.w3.org/1999/xlink" y="50"><style>@keyframes l{0%{transform:translateX(0)}.6%{transform:translateX(-100px)}.8%{transform:translateX(-200px)}46.3%{transform:translateX(-300px)}48.2%{transform:translateX(-600px)}93.8%{transform:translateX(-700px)}to{transform:translateX(-800px)}}.a{fill:#282d35}.f,.g{fill:#b9c0cb}.f{white-space:pre}.g{font-weight:700}.g,.h,.i{white-space:pre}.h{fill:#71bef2;font-weight:700}.i{fill:#a8cc8c}</style><g font-family="Monaco,Consolas,Menlo,'Bitstream Vera Sans Mono','Powerline Symbols',monospace" font-size="1.67"><defs><symbol id="1"><text y="1.67" class="f">#</text><text x="2.004" y="1.67" class="f">Phase</text><text x="8.016" y="1.67" class="f">2:</text><text x="11.022" y="1.67" class="f">DEPLOY</text><text x="18.036" y="1.67" class="f">-</text><text x="20.04" y="1.67" class="f">bring</text><text x="26.052" y="1.67" class="f">up</text><text x="29.058" y="1.67" class="f">a</text><text x="31.062" y="1.67" class="f">container</text><text x="41.082" y="1.67" class="f">and</text><text x="45.09" y="1.67" class="f">call</text><text x="50.1" y="1.67" class="f">the</text><text x="54.108" y="1.67" class="f">API</text></symbol><symbol id="2"><text y="1.67" class="f">$</text><text x="2.004" y="1.67" class="f">curl</text><text x="7.014" y="1.67" class="f">http://localhost:8080/health</text><text x="36.072" y="1.67" class="f">|</text><text x="38.076" y="1.67" class="f">jq</text><text x="41.082" y="1.67" class="f">.</text></symbol><symbol id="3"><text y="1.67" class="g">{</text></symbol><symbol id="4"><text x="2.004" y="1.67" class="h">&quot;status&quot;</text><text x="10.02" y="1.67" class="g">:</text><text x="12.024" y="1.67" class="i">&quot;ok&quot;</text><text x="16.032" y="1.67" class="g">,</text></symbol><symbol id="5"><text x="2.004" y="1.67" class="h">&quot;model&quot;</text><text x="9.018" y="1.67" class="g">:</text><text x="11.022" y="1.67" class="i">&quot;jina-embeddings-v5-text-nano&quot;</text><text x="41.082" y="1.67" class="g">,</text></symbol><symbol id="6"><text x="2.004" y="1.67" class="h">&quot;device&quot;</text><text x="10.02" y="1.67" class="g">:</text><text x="12.024" y="1.67" class="i">&quot;cpu&quot;</text><text x="17.034" y="1.67" class="g">,</text></symbol><symbol id="7"><text x="2.004" y="1.67" class="h">&quot;ready&quot;</text><text x="9.018" y="1.67" class="g">:</text><text x="11.022" y="1.67" class="f">true</text><text x="15.03" y="1.67" class="g">,</text></symbol><symbol id="8"><text x="2.004" y="1.67" class="h">&quot;multimodal&quot;</text><text x="14.028" y="1.67" class="g">:</text><text x="16.032" y="1.67" class="f">false</text><text x="21.042" y="1.67" class="g">,</text></symbol><symbol id="9"><text x="2.004" y="1.67" class="h">&quot;schemas&quot;</text><text x="11.022" y="1.67" class="g">:</text><text x="13.026" y="1.67" class="g">[</text></symbol><symbol id="10"><text x="4.008" y="1.67" class="i">&quot;openai&quot;</text><text x="12.024" y="1.67" class="g">,</text></symbol><symbol id="11"><text x="4.008" y="1.67" class="i">&quot;voyage&quot;</text><text x="12.024" y="1.67" class="g">,</text></symbol><symbol id="12"><text x="4.008" y="1.67" class="i">&quot;gemini&quot;</text><text x="12.024" y="1.67" class="g">,</text></symbol><symbol id="13"><text x="4.008" y="1.67" class="i">&quot;cohere&quot;</text></symbol><symbol id="14"><text x="2.004" y="1.67" class="g">]</text></symbol><symbol id="15"><text y="1.67" class="g">}</text></symbol><symbol id="16"><text y="1.67" class="f">$</text><text x="2.004" y="1.67" class="f">curl</text><text x="7.014" y="1.67" class="f">-s</text><text x="10.02" y="1.67" class="f">http://localhost:8080/v1/embeddings</text><text x="46.092" y="1.67" class="f">-d</text><text x="49.098" y="1.67" class="f">&apos;{&quot;input&quot;:[&quot;Hello</text><text x="67.134" y="1.67" class="f">world&quot;]}&apos;</text><text x="77.154" y="1.67" class="f">|</text><text x="79.158" y="1.67" class="f">jq</text><text x="82.164" y="1.67" class="f">&quot;{model,</text><text x="91.182" y="1.67" class="f">dim:</text><text x="96.192" y="1.67" class="f">(.da</text></symbol><symbol id="17"><text y="1.67" class="f">ta[0].embedding|length),</text><text x="25.05" y="1.67" class="f">first3:</text><text x="33.066" y="1.67" class="f">.data[0].embedding[:3]}&quot;</text></symbol><symbol id="a"><path fill="transparent" d="M0 0h100v29H0z"/></symbol><symbol id="b"><path fill="#6f7683" d="M0 0h1.102v2.171H0z"/></symbol></defs><path class="a" d="M0 0h100v60.788H0z"/><g style="animation-duration:2.195801999999998s;animation-iteration-count:infinite;animation-name:l;animation-timing-function:steps(1,end)"><svg width="900"><svg><use xlink:href="#a"/><use xlink:href="#b" x="-.004"/></svg><svg x="100"><use xlink:href="#a"/><use xlink:href="#b" x="-.004"/></svg><svg x="200"><use xlink:href="#a"/><use xlink:href="#b" x="-.004" y="6.488"/><use xlink:href="#1" y="2.171"/></svg><svg x="300"><use xlink:href="#a"/><use xlink:href="#b" x="-.004" y="8.659"/><use xlink:href="#1" y="2.171"/><use xlink:href="#2" y="6.513"/></svg><svg x="400"><use xlink:href="#a"/><use xlink:href="#b" x="-.004" y="34.711"/><use xlink:href="#1" y="2.171"/><use xlink:href="#2" y="6.513"/><use xlink:href="#3" y="8.684"/><use xlink:href="#4" y="10.855"/><use xlink:href="#5" y="13.026"/><use xlink:href="#6" y="15.197"/><use xlink:href="#7" y="17.368"/><use xlink:href="#8" y="19.539"/><use xlink:href="#9" y="21.71"/><use xlink:href="#10" y="23.881"/><use xlink:href="#11" y="26.052"/><use xlink:href="#12" y="28.223"/><use xlink:href="#13" y="30.394"/><use xlink:href="#14" y="32.565"/></svg><svg x="500"><use xlink:href="#a"/><use xlink:href="#b" x="-.004" y="36.882"/><use xlink:href="#1" y="2.171"/><use xlink:href="#2" y="6.513"/><use xlink:href="#3" y="8.684"/><use xlink:href="#4" y="10.855"/><use xlink:href="#5" y="13.026"/><use xlink:href="#6" y="15.197"/><use xlink:href="#7" y="17.368"/><use xlink:href="#8" y="19.539"/><use xlink:href="#9" y="21.71"/><use xlink:href="#10" y="23.881"/><use xlink:href="#11" y="26.052"/><use xlink:href="#12" y="28.223"/><use xlink:href="#13" y="30.394"/><use xlink:href="#14" y="32.565"/><use xlink:href="#15" y="34.736"/></svg><svg x="600"><use xlink:href="#a"/><use xlink:href="#b" x="-.004" y="39.053"/><use xlink:href="#1" y="2.171"/><use xlink:href="#2" y="6.513"/><use xlink:href="#3" y="8.684"/><use xlink:href="#4" y="10.855"/><use xlink:href="#5" y="13.026"/><use xlink:href="#6" y="15.197"/><use xlink:href="#7" y="17.368"/><use xlink:href="#8" y="19.539"/><use xlink:href="#9" y="21.71"/><use xlink:href="#10" y="23.881"/><use xlink:href="#11" y="26.052"/><use xlink:href="#12" y="28.223"/><use xlink:href="#13" y="30.394"/><use xlink:href="#14" y="32.565"/><use xlink:href="#15" y="34.736"/></svg><svg x="700"><use xlink:href="#a"/><use xlink:href="#b" x="-.004" y="43.395"/><use xlink:href="#1" y="2.171"/><use xlink:href="#2" y="6.513"/><use xlink:href="#3" y="8.684"/><use xlink:href="#4" y="10.855"/><use xlink:href="#5" y="13.026"/><use xlink:href="#6" y="15.197"/><use xlink:href="#7" y="17.368"/><use xlink:href="#8" y="19.539"/><use xlink:href="#9" y="21.71"/><use xlink:href="#10" y="23.881"/><use xlink:href="#11" y="26.052"/><use xlink:href="#12" y="28.223"/><use xlink:href="#13" y="30.394"/><use xlink:href="#14" y="32.565"/><use xlink:href="#15" y="34.736"/><use xlink:href="#16" y="39.078"/><use xlink:href="#17" y="41.249"/></svg><svg x="800"><use xlink:href="#a"/><use xlink:href="#b" x="-.004" y="60.763"/><use xlink:href="#2" y="2.171"/><use xlink:href="#3" y="4.342"/><use xlink:href="#4" y="6.513"/><use xlink:href="#5" y="8.684"/><use xlink:href="#6" y="10.855"/><use xlink:href="#7" y="13.026"/><use xlink:href="#8" y="15.197"/><use xlink:href="#9" y="17.368"/><use xlink:href="#10" y="19.539"/><use xlink:href="#11" y="21.71"/><use xlink:href="#12" y="23.881"/><use xlink:href="#13" y="26.052"/><use xlink:href="#14" y="28.223"/><use xlink:href="#15" y="30.394"/><use xlink:href="#16" y="34.736"/><use xlink:href="#17" y="36.907"/><use xlink:href="#3" y="39.078"/><use xlink:href="#5" y="41.249"/><text x="2.004" y="45.09" class="h">&quot;dim&quot;</text><text x="7.014" y="45.09" class="g">:</text><text x="9.018" y="45.09" class="f">768</text><text x="12.024" y="45.09" class="g">,</text><text x="2.004" y="47.261" class="h">&quot;first3&quot;</text><text x="10.02" y="47.261" class="g">:</text><text x="12.024" y="47.261" class="g">[</text><text x="4.008" y="49.432" class="f">-0.02797103486955166</text><text x="24.048" y="49.432" class="g">,</text><text x="4.008" y="51.603" class="f">0.03203997388482094</text><text x="23.046" y="51.603" class="g">,</text><text x="4.008" y="53.774" class="f">0.015420214273035526</text><use xlink:href="#14" y="54.275"/><use xlink:href="#15" y="56.446"/></svg></svg></g></g></svg></svg>