<svg xmlns="http://www.w3.org/2000/svg" xmlns:xlink="http://www.w3.org/1999/xlink" width="1140" height="667.88"><rect width="1140" height="667.88" rx="5" ry="5" class="a"/><svg y="0%" x="0%"><circle cx="20" cy="20" r="6" fill="#ff5f58"/><circle cx="40" cy="20" r="6" fill="#ffbd2e"/><circle cx="60" cy="20" r="6" fill="#18c132"/></svg><svg height="607.88" viewBox="0 0 110 60.788" width="1100" x="15" xmlns="http://www.w3.org/2000/svg" xmlns:xlink="http://www.w3.org/1999/xlink" y="50"><style>@keyframes i{0%{transform:translateX(0)}.1%{transform:translateX(-110px)}11.8%{transform:translateX(-220px)}12.1%{transform:translateX(-330px)}12.4%{transform:translateX(-440px)}12.7%{transform:translateX(-550px)}13.1%{transform:translateX(-660px)}13.4%{transform:translateX(-770px)}13.7%{transform:translateX(-880px)}14.1%{transform:translateX(-990px)}14.4%{transform:translateX(-1100px)}14.7%{transform:translateX(-1210px)}15%{transform:translateX(-1320px)}15.4%{transform:translateX(-1430px)}15.7%{transform:translateX(-1540px)}16%{transform:translateX(-1650px)}16.3%{transform:translateX(-1760px)}16.7%{transform:translateX(-1870px)}17%{transform:translateX(-1980px)}17.3%{transform:translateX(-2090px)}17.7%{transform:translateX(-2200px)}18%{transform:translateX(-2310px)}18.3%{transform:translateX(-2420px)}18.6%{transform:translateX(-2530px)}18.9%{transform:translateX(-2640px)}19.2%{transform:translateX(-2750px)}19.6%{transform:translateX(-2860px)}19.9%{transform:translateX(-2970px)}20.2%{transform:translateX(-3080px)}20.5%{transform:translateX(-3190px)}20.9%{transform:translateX(-3300px)}21.2%{transform:translateX(-3410px)}21.5%{transform:translateX(-3520px)}21.8%{transform:translateX(-3630px)}22.2%{transform:translateX(-3740px)}22.5%{transform:translateX(-3850px)}22.8%{transform:translateX(-3960px)}23.1%{transform:translateX(-4070px)}23.5%{transform:translateX(-4180px)}23.8%{transform:translateX(-4290px)}24.1%{transform:translateX(-4400px)}24.4%{transform:translateX(-4510px)}24.8%{transform:translateX(-4620px)}25.1%{transform:translateX(-4730px)}25.4%{transform:translateX(-4840px)}25.8%{transform:translateX(-4950px)}26.1%{transform:translateX(-5060px)}26.4%{transform:translateX(-5170px)}26.7%{transform:translateX(-5280px)}27%{transform:translateX(-5390px)}27.4%{transform:translateX(-5500px)}27.7%{transform:translateX(-5610px)}28%{transform:translateX(-5720px)}28.3%{transform:translateX(-5830px)}28.6%{transform:translateX(-5940px)}29%{transform:translateX(-6050px)}29.3%{transform:translateX(-6160px)}34%{transform:translateX(-6270px)}34.4%{transform:translateX(-6380px)}34.7%{transform:translateX(-6490px)}35%{transform:translateX(-6600px)}35.3%{transform:translateX(-6710px)}35.6%{transform:translateX(-6820px)}35.9%{transform:translateX(-6930px)}36.3%{transform:translateX(-7040px)}36.6%{transform:translateX(-7150px)}36.9%{transform:translateX(-7260px)}37.2%{transform:translateX(-7370px)}37.5%{transform:translateX(-7480px)}49.2%{transform:translateX(-7590px)}49.6%{transform:translateX(-7700px)}49.9%{transform:translateX(-7810px)}50.3%{transform:translateX(-7920px)}50.6%{transform:translateX(-8030px)}50.9%{transform:translateX(-8140px)}51.3%{transform:translateX(-8250px)}51.6%{transform:translateX(-8360px)}51.9%{transform:translateX(-8470px)}52.2%{transform:translateX(-8580px)}52.5%{transform:translateX(-8690px)}52.9%{transform:translateX(-8800px)}64.6%{transform:translateX(-8910px)}64.9%{transform:translateX(-9020px)}65.2%{transform:translateX(-9130px)}65.5%{transform:translateX(-9240px)}65.9%{transform:translateX(-9350px)}66.2%{transform:translateX(-9460px)}66.5%{transform:translateX(-9570px)}66.9%{transform:translateX(-9680px)}67.2%{transform:translateX(-9790px)}67.5%{transform:translateX(-9900px)}67.8%{transform:translateX(-10010px)}68.2%{transform:translateX(-10120px)}79.9%{transform:translateX(-10230px)}80.2%{transform:translateX(-10340px)}80.5%{transform:translateX(-10450px)}80.9%{transform:translateX(-10560px)}81.2%{transform:translateX(-10670px)}81.5%{transform:translateX(-10780px)}81.8%{transform:translateX(-10890px)}82.1%{transform:translateX(-11000px)}82.5%{transform:translateX(-11110px)}82.8%{transform:translateX(-11220px)}83.1%{transform:translateX(-11330px)}83.5%{transform:translateX(-11440px)}83.8%{transform:translateX(-11550px)}84.1%{transform:translateX(-11660px)}84.4%{transform:translateX(-11770px)}84.7%{transform:translateX(-11880px)}85.1%{transform:translateX(-11990px)}85.4%{transform:translateX(-12100px)}85.7%{transform:translateX(-12210px)}86%{transform:translateX(-12320px)}86.4%{transform:translateX(-12430px)}86.7%{transform:translateX(-12540px)}87%{transform:translateX(-12650px)}87.3%{transform:translateX(-12760px)}87.6%{transform:translateX(-12870px)}87.9%{transform:translateX(-12980px)}88.3%{transform:translateX(-13090px)}to{transform:translateX(-13200px)}}.a{fill:#282d35}.f,.k{fill:#b9c0cb;white-space:pre}.k{font-weight:700}</style><g font-family="Monaco,Consolas,Menlo,'Bitstream Vera Sans Mono','Powerline Symbols',monospace" font-size="1.67"><defs><symbol id="1"><text y="1.67" class="f">#</text></symbol><symbol id="2"><text y="1.67" class="f">#</text><text x="2.004" y="1.67" class="f">Same</text></symbol><symbol id="3"><text y="1.67" class="f">#</text><text x="2.004" y="1.67" class="f">Same</text><text x="7.014" y="1.67" class="f">server,</text></symbol><symbol id="4"><text y="1.67" class="f">#</text><text x="2.004" y="1.67" class="f">Same</text><text x="7.014" y="1.67" class="f">server,</text><text x="15.03" y="1.67" class="f">four</text></symbol><symbol id="5"><text y="1.67" class="f">#</text><text x="2.004" y="1.67" class="f">Same</text><text x="7.014" y="1.67" class="f">server,</text><text x="15.03" y="1.67" class="f">four</text><text x="20.04" y="1.67" class="f">API</text></symbol><symbol id="6"><text y="1.67" class="f">#</text><text x="2.004" y="1.67" class="f">Same</text><text x="7.014" y="1.67" class="f">server,</text><text x="15.03" y="1.67" class="f">four</text><text x="20.04" y="1.67" class="f">API</text><text x="24.048" y="1.67" class="f">schemas</text></symbol><symbol id="7"><text y="1.67" class="f">#</text><text x="2.004" y="1.67" class="f">Same</text><text x="7.014" y="1.67" class="f">server,</text><text x="15.03" y="1.67" class="f">four</text><text x="20.04" y="1.67" class="f">API</text><text x="24.048" y="1.67" class="f">schemas</text><text x="32.064" y="1.67" class="f">active</text></symbol><symbol id="8"><text y="1.67" class="f">#</text><text x="2.004" y="1.67" class="f">Same</text><text x="7.014" y="1.67" class="f">server,</text><text x="15.03" y="1.67" class="f">four</text><text x="20.04" y="1.67" class="f">API</text><text x="24.048" y="1.67" class="f">schemas</text><text x="32.064" y="1.67" class="f">active</text><text x="39.078" y="1.67" class="f">simultaneously.</text></symbol><symbol id="9"><text y="1.67" class="f">#</text><text x="2.004" y="1.67" class="f">1.</text></symbol><symbol id="10"><text y="1.67" class="f">#</text><text x="2.004" y="1.67" class="f">1.</text><text x="5.01" y="1.67" class="f">OpenAI</text></symbol><symbol id="11"><text y="1.67" class="f">#</text><text x="2.004" y="1.67" class="f">2.</text></symbol><symbol id="12"><text y="1.67" class="f">#</text><text x="2.004" y="1.67" class="f">2.</text><text x="5.01" y="1.67" class="f">Cohere</text></symbol><symbol id="13"><text y="1.67" class="f">#</text><text x="2.004" y="1.67" class="f">3.</text></symbol><symbol id="14"><text y="1.67" class="f">#</text><text x="2.004" y="1.67" class="f">3.</text><text x="5.01" y="1.67" class="f">Gemini</text></symbol><symbol id="15"><text y="1.67" class="f">#</text><text x="2.004" y="1.67" class="f">4.</text></symbol><symbol id="16"><text y="1.67" class="f">#</text><text x="2.004" y="1.67" class="f">4.</text><text x="5.01" y="1.67" class="f">Matryoshka</text></symbol><symbol id="17"><text y="1.67" class="f">#</text><text x="2.004" y="1.67" class="f">4.</text><text x="5.01" y="1.67" class="f">Matryoshka</text><text x="16.032" y="1.67" class="f">truncation</text></symbol><symbol id="a"><path fill="transparent" d="M0 0h110v29H0z"/></symbol><symbol id="b"><path fill="#6f7683" d="M0 0h1.102v2.171H0z"/></symbol></defs><path class="a" d="M0 0h110v60.788H0z"/><g style="animation-duration:8.539160999999996s;animation-iteration-count:infinite;animation-name:i;animation-timing-function:steps(1,end)"><svg width="13310"><svg><use xlink:href="#a"/><use xlink:href="#b" x="-.004"/></svg><svg x="110"><use xlink:href="#a"/><use xlink:href="#b" x="-.004"/></svg><svg x="220"><use xlink:href="#a"/><use xlink:href="#b" x=".996"/><use xlink:href="#1"/></svg><svg x="330"><use xlink:href="#a"/><use xlink:href="#b" x="1.996"/><use xlink:href="#1"/></svg><svg x="440"><use xlink:href="#a"/><use xlink:href="#b" x="2.996"/><text y="1.67" class="f">#</text><text x="2.004" y="1.67" class="f">S</text></svg><svg x="550"><use xlink:href="#a"/><use xlink:href="#b" x="3.996"/><text y="1.67" class="f">#</text><text x="2.004" y="1.67" class="f">Sa</text></svg><svg x="660"><use xlink:href="#a"/><use xlink:href="#b" x="4.996"/><text y="1.67" class="f">#</text><text x="2.004" y="1.67" class="f">Sam</text></svg><svg x="770"><use xlink:href="#a"/><use xlink:href="#b" x="5.996"/><use xlink:href="#2"/></svg><svg x="880"><use xlink:href="#a"/><use xlink:href="#b" x="6.996"/><use xlink:href="#2"/></svg><svg x="990"><use xlink:href="#a"/><use xlink:href="#b" x="7.996"/><text y="1.67" class="f">#</text><text x="2.004" y="1.67" class="f">Same</text><text x="7.014" y="1.67" class="f">s</text></svg><svg x="1100"><use xlink:href="#a"/><use xlink:href="#b" x="8.996"/><text y="1.67" class="f">#</text><text x="2.004" y="1.67" class="f">Same</text><text x="7.014" y="1.67" class="f">se</text></svg><svg x="1210"><use xlink:href="#a"/><use xlink:href="#b" x="9.996"/><text y="1.67" class="f">#</text><text x="2.004" y="1.67" class="f">Same</text><text x="7.014" y="1.67" class="f">ser</text></svg><svg x="1320"><use xlink:href="#a"/><use xlink:href="#b" x="10.996"/><text y="1.67" class="f">#</text><text x="2.004" y="1.67" class="f">Same</text><text x="7.014" y="1.67" class="f">serv</text></svg><svg x="1430"><use xlink:href="#a"/><use xlink:href="#b" x="11.996"/><text y="1.67" class="f">#</text><text x="2.004" y="1.67" class="f">Same</text><text x="7.014" y="1.67" class="f">serve</text></svg><svg x="1540"><use xlink:href="#a"/><use xlink:href="#b" x="12.996"/><text y="1.67" class="f">#</text><text x="2.004" y="1.67" class="f">Same</text><text x="7.014" y="1.67" class="f">server</text></svg><svg x="1650"><use xlink:href="#a"/><use xlink:href="#b" x="13.996"/><use xlink:href="#3"/></svg><svg x="1760"><use xlink:href="#a"/><use xlink:href="#b" x="14.996"/><use xlink:href="#3"/></svg><svg x="1870"><use xlink:href="#a"/><use xlink:href="#b" x="15.996"/><text y="1.67" class="f">#</text><text x="2.004" y="1.67" class="f">Same</text><text x="7.014" y="1.67" class="f">server,</text><text x="15.03" y="1.67" class="f">f</text></svg><svg x="1980"><use xlink:href="#a"/><use xlink:href="#b" x="16.996"/><text y="1.67" class="f">#</text><text x="2.004" y="1.67" class="f">Same</text><text x="7.014" y="1.67" class="f">server,</text><text x="15.03" y="1.67" class="f">fo</text></svg><svg x="2090"><use xlink:href="#a"/><use xlink:href="#b" x="17.996"/><text y="1.67" class="f">#</text><text x="2.004" y="1.67" class="f">Same</text><text x="7.014" y="1.67" class="f">server,</text><text x="15.03" y="1.67" class="f">fou</text></svg><svg x="2200"><use xlink:href="#a"/><use xlink:href="#b" x="18.996"/><use xlink:href="#4"/></svg><svg x="2310"><use xlink:href="#a"/><use xlink:href="#b" x="19.996"/><use xlink:href="#4"/></svg><svg x="2420"><use xlink:href="#a"/><use xlink:href="#b" x="20.996"/><text y="1.67" class="f">#</text><text x="2.004" y="1.67" class="f">Same</text><text x="7.014" y="1.67" class="f">server,</text><text x="15.03" y="1.67" class="f">four</text><text x="20.04" y="1.67" class="f">A</text></svg><svg x="2530"><use xlink:href="#a"/><use xlink:href="#b" x="21.996"/><text y="1.67" class="f">#</text><text x="2.004" y="1.67" class="f">Same</text><text x="7.014" y="1.67" class="f">server,</text><text x="15.03" y="1.67" class="f">four</text><text x="20.04" y="1.67" class="f">AP</text></svg><svg x="2640"><use xlink:href="#a"/><use xlink:href="#b" x="22.996"/><use xlink:href="#5"/></svg><svg x="2750"><use xlink:href="#a"/><use xlink:href="#b" x="23.996"/><use xlink:href="#5"/></svg><svg x="2860"><use xlink:href="#a"/><use xlink:href="#b" x="24.996"/><text y="1.67" class="f">#</text><text x="2.004" y="1.67" class="f">Same</text><text x="7.014" y="1.67" class="f">server,</text><text x="15.03" y="1.67" class="f">four</text><text x="20.04" y="1.67" class="f">API</text><text x="24.048" y="1.67" class="f">s</text></svg><svg x="2970"><use xlink:href="#a"/><use xlink:href="#b" x="25.996"/><text y="1.67" class="f">#</text><text x="2.004" y="1.67" class="f">Same</text><text x="7.014" y="1.67" class="f">server,</text><text x="15.03" y="1.67" class="f">four</text><text x="20.04" y="1.67" class="f">API</text><text x="24.048" y="1.67" class="f">sc</text></svg><svg x="3080"><use xlink:href="#a"/><use xlink:href="#b" x="26.996"/><text y="1.67" class="f">#</text><text x="2.004" y="1.67" class="f">Same</text><text x="7.014" y="1.67" class="f">server,</text><text x="15.03" y="1.67" class="f">four</text><text x="20.04" y="1.67" class="f">API</text><text x="24.048" y="1.67" class="f">sch</text></svg><svg x="3190"><use xlink:href="#a"/><use xlink:href="#b" x="27.996"/><text y="1.67" class="f">#</text><text x="2.004" y="1.67" class="f">Same</text><text x="7.014" y="1.67" class="f">server,</text><text x="15.03" y="1.67" class="f">four</text><text x="20.04" y="1.67" class="f">API</text><text x="24.048" y="1.67" class="f">sche</text></svg><svg x="3300"><use xlink:href="#a"/><use xlink:href="#b" x="28.996"/><text y="1.67" class="f">#</text><text x="2.004" y="1.67" class="f">Same</text><text x="7.014" y="1.67" class="f">server,</text><text x="15.03" y="1.67" class="f">four</text><text x="20.04" y="1.67" class="f">API</text><text x="24.048" y="1.67" class="f">schem</text></svg><svg x="3410"><use xlink:href="#a"/><use xlink:href="#b" x="29.996"/><text y="1.67" class="f">#</text><text x="2.004" y="1.67" class="f">Same</text><text x="7.014" y="1.67" class="f">server,</text><text x="15.03" y="1.67" class="f">four</text><text x="20.04" y="1.67" class="f">API</text><text x="24.048" y="1.67" class="f">schema</text></svg><svg x="3520"><use xlink:href="#a"/><use xlink:href="#b" x="30.996"/><use xlink:href="#6"/></svg><svg x="3630"><use xlink:href="#a"/><use xlink:href="#b" x="31.996"/><use xlink:href="#6"/></svg><svg x="3740"><use xlink:href="#a"/><use xlink:href="#b" x="32.996"/><text y="1.67" class="f">#</text><text x="2.004" y="1.67" class="f">Same</text><text x="7.014" y="1.67" class="f">server,</text><text x="15.03" y="1.67" class="f">four</text><text x="20.04" y="1.67" class="f">API</text><text x="24.048" y="1.67" class="f">schemas</text><text x="32.064" y="1.67" class="f">a</text></svg><svg x="3850"><use xlink:href="#a"/><use xlink:href="#b" x="33.996"/><text y="1.67" class="f">#</text><text x="2.004" y="1.67" class="f">Same</text><text x="7.014" y="1.67" class="f">server,</text><text x="15.03" y="1.67" class="f">four</text><text x="20.04" y="1.67" class="f">API</text><text x="24.048" y="1.67" class="f">schemas</text><text x="32.064" y="1.67" class="f">ac</text></svg><svg x="3960"><use xlink:href="#a"/><use xlink:href="#b" x="34.996"/><text y="1.67" class="f">#</text><text x="2.004" y="1.67" class="f">Same</text><text x="7.014" y="1.67" class="f">server,</text><text x="15.03" y="1.67" class="f">four</text><text x="20.04" y="1.67" class="f">API</text><text x="24.048" y="1.67" class="f">schemas</text><text x="32.064" y="1.67" class="f">act</text></svg><svg x="4070"><use xlink:href="#a"/><use xlink:href="#b" x="35.996"/><text y="1.67" class="f">#</text><text x="2.004" y="1.67" class="f">Same</text><text x="7.014" y="1.67" class="f">server,</text><text x="15.03" y="1.67" class="f">four</text><text x="20.04" y="1.67" class="f">API</text><text x="24.048" y="1.67" class="f">schemas</text><text x="32.064" y="1.67" class="f">acti</text></svg><svg x="4180"><use xlink:href="#a"/><use xlink:href="#b" x="36.996"/><text y="1.67" class="f">#</text><text x="2.004" y="1.67" class="f">Same</text><text x="7.014" y="1.67" class="f">server,</text><text x="15.03" y="1.67" class="f">four</text><text x="20.04" y="1.67" class="f">API</text><text x="24.048" y="1.67" class="f">schemas</text><text x="32.064" y="1.67" class="f">activ</text></svg><svg x="4290"><use xlink:href="#a"/><use xlink:href="#b" x="37.996"/><use xlink:href="#7"/></svg><svg x="4400"><use xlink:href="#a"/><use xlink:href="#b" x="38.996"/><use xlink:href="#7"/></svg><svg x="4510"><use xlink:href="#a"/><use xlink:href="#b" x="39.996"/><text y="1.67" class="f">#</text><text x="2.004" y="1.67" class="f">Same</text><text x="7.014" y="1.67" class="f">server,</text><text x="15.03" y="1.67" class="f">four</text><text x="20.04" y="1.67" class="f">API</text><text x="24.048" y="1.67" class="f">schemas</text><text x="32.064" y="1.67" class="f">active</text><text x="39.078" y="1.67" class="f">s</text></svg><svg x="4620"><use xlink:href="#a"/><use xlink:href="#b" x="40.996"/><text y="1.67" class="f">#</text><text x="2.004" y="1.67" class="f">Same</text><text x="7.014" y="1.67" class="f">server,</text><text x="15.03" y="1.67" class="f">four</text><text x="20.04" y="1.67" class="f">API</text><text x="24.048" y="1.67" class="f">schemas</text><text x="32.064" y="1.67" class="f">active</text><text x="39.078" y="1.67" class="f">si</text></svg><svg x="4730"><use xlink:href="#a"/><use xlink:href="#b" x="41.996"/><text y="1.67" class="f">#</text><text x="2.004" y="1.67" class="f">Same</text><text x="7.014" y="1.67" class="f">server,</text><text x="15.03" y="1.67" class="f">four</text><text x="20.04" y="1.67" class="f">API</text><text x="24.048" y="1.67" class="f">schemas</text><text x="32.064" y="1.67" class="f">active</text><text x="39.078" y="1.67" class="f">sim</text></svg><svg x="4840"><use xlink:href="#a"/><use xlink:href="#b" x="42.996"/><text y="1.67" class="f">#</text><text x="2.004" y="1.67" class="f">Same</text><text x="7.014" y="1.67" class="f">server,</text><text x="15.03" y="1.67" class="f">four</text><text x="20.04" y="1.67" class="f">API</text><text x="24.048" y="1.67" class="f">schemas</text><text x="32.064" y="1.67" class="f">active</text><text x="39.078" y="1.67" class="f">simu</text></svg><svg x="4950"><use xlink:href="#a"/><use xlink:href="#b" x="43.996"/><text y="1.67" class="f">#</text><text x="2.004" y="1.67" class="f">Same</text><text x="7.014" y="1.67" class="f">server,</text><text x="15.03" y="1.67" class="f">four</text><text x="20.04" y="1.67" class="f">API</text><text x="24.048" y="1.67" class="f">schemas</text><text x="32.064" y="1.67" class="f">active</text><text x="39.078" y="1.67" class="f">simul</text></svg><svg x="5060"><use xlink:href="#a"/><use xlink:href="#b" x="44.996"/><text y="1.67" class="f">#</text><text x="2.004" y="1.67" class="f">Same</text><text x="7.014" y="1.67" class="f">server,</text><text x="15.03" y="1.67" class="f">four</text><text x="20.04" y="1.67" class="f">API</text><text x="24.048" y="1.67" class="f">schemas</text><text x="32.064" y="1.67" class="f">active</text><text x="39.078" y="1.67" class="f">simult</text></svg><svg x="5170"><use xlink:href="#a"/><use xlink:href="#b" x="45.996"/><text y="1.67" class="f">#</text><text x="2.004" y="1.67" class="f">Same</text><text x="7.014" y="1.67" class="f">server,</text><text x="15.03" y="1.67" class="f">four</text><text x="20.04" y="1.67" class="f">API</text><text x="24.048" y="1.67" class="f">schemas</text><text x="32.064" y="1.67" class="f">active</text><text x="39.078" y="1.67" class="f">simulta</text></svg><svg x="5280"><use xlink:href="#a"/><use xlink:href="#b" x="46.996"/><text y="1.67" class="f">#</text><text x="2.004" y="1.67" class="f">Same</text><text x="7.014" y="1.67" class="f">server,</text><text x="15.03" y="1.67" class="f">four</text><text x="20.04" y="1.67" class="f">API</text><text x="24.048" y="1.67" class="f">schemas</text><text x="32.064" y="1.67" class="f">active</text><text x="39.078" y="1.67" class="f">simultan</text></svg><svg x="5390"><use xlink:href="#a"/><use xlink:href="#b" x="47.996"/><text y="1.67" class="f">#</text><text x="2.004" y="1.67" class="f">Same</text><text x="7.014" y="1.67" class="f">server,</text><text x="15.03" y="1.67" class="f">four</text><text x="20.04" y="1.67" class="f">API</text><text x="24.048" y="1.67" class="f">schemas</text><text x="32.064" y="1.67" class="f">active</text><text x="39.078" y="1.67" class="f">simultane</text></svg><svg x="5500"><use xlink:href="#a"/><use xlink:href="#b" x="48.996"/><text y="1.67" class="f">#</text><text x="2.004" y="1.67" class="f">Same</text><text x="7.014" y="1.67" class="f">server,</text><text x="15.03" y="1.67" class="f">four</text><text x="20.04" y="1.67" class="f">API</text><text x="24.048" y="1.67" class="f">schemas</text><text x="32.064" y="1.67" class="f">active</text><text x="39.078" y="1.67" class="f">simultaneo</text></svg><svg x="5610"><use xlink:href="#a"/><use xlink:href="#b" x="49.996"/><text y="1.67" class="f">#</text><text x="2.004" y="1.67" class="f">Same</text><text x="7.014" y="1.67" class="f">server,</text><text x="15.03" y="1.67" class="f">four</text><text x="20.04" y="1.67" class="f">API</text><text x="24.048" y="1.67" class="f">schemas</text><text x="32.064" y="1.67" class="f">active</text><text x="39.078" y="1.67" class="f">simultaneou</text></svg><svg x="5720"><use xlink:href="#a"/><use xlink:href="#b" x="50.996"/><text y="1.67" class="f">#</text><text x="2.004" y="1.67" class="f">Same</text><text x="7.014" y="1.67" class="f">server,</text><text x="15.03" y="1.67" class="f">four</text><text x="20.04" y="1.67" class="f">API</text><text x="24.048" y="1.67" class="f">schemas</text><text x="32.064" y="1.67" class="f">active</text><text x="39.078" y="1.67" class="f">simultaneous</text></svg><svg x="5830"><use xlink:href="#a"/><use xlink:href="#b" x="51.996"/><text y="1.67" class="f">#</text><text x="2.004" y="1.67" class="f">Same</text><text x="7.014" y="1.67" class="f">server,</text><text x="15.03" y="1.67" class="f">four</text><text x="20.04" y="1.67" class="f">API</text><text x="24.048" y="1.67" class="f">schemas</text><text x="32.064" y="1.67" class="f">active</text><text x="39.078" y="1.67" class="f">simultaneousl</text></svg><svg x="5940"><use xlink:href="#a"/><use xlink:href="#b" x="52.996"/><text y="1.67" class="f">#</text><text x="2.004" y="1.67" class="f">Same</text><text x="7.014" y="1.67" class="f">server,</text><text x="15.03" y="1.67" class="f">four</text><text x="20.04" y="1.67" class="f">API</text><text x="24.048" y="1.67" class="f">schemas</text><text x="32.064" y="1.67" class="f">active</text><text x="39.078" y="1.67" class="f">simultaneously</text></svg><svg x="6050"><use xlink:href="#a"/><use xlink:href="#b" x="53.996"/><use xlink:href="#8"/></svg><svg x="6160"><use xlink:href="#a"/><use xlink:href="#b" x="-.004" y="2.146"/><use xlink:href="#8"/></svg><svg x="6270"><use xlink:href="#a"/><use xlink:href="#b" x=".996" y="2.146"/><use xlink:href="#8"/><use xlink:href="#1" y="2.171"/></svg><svg x="6380"><use xlink:href="#a"/><use xlink:href="#b" x="1.996" y="2.146"/><use xlink:href="#8"/><use xlink:href="#1" y="2.171"/></svg><svg x="6490"><use xlink:href="#a"/><use xlink:href="#b" x="2.996" y="2.146"/><use xlink:href="#8"/><text y="3.841" class="f">#</text><text x="2.004" y="3.841" class="f">1</text></svg><svg x="6600"><use xlink:href="#a"/><use xlink:href="#b" x="3.996" y="2.146"/><use xlink:href="#8"/><use xlink:href="#9" y="2.171"/></svg><svg x="6710"><use xlink:href="#a"/><use xlink:href="#b" x="4.996" y="2.146"/><use xlink:href="#8"/><use xlink:href="#9" y="2.171"/></svg><svg x="6820"><use xlink:href="#a"/><use xlink:href="#b" x="5.996" y="2.146"/><use xlink:href="#8"/><text y="3.841" class="f">#</text><text x="2.004" y="3.841" class="f">1.</text><text x="5.01" y="3.841" class="f">O</text></svg><svg x="6930"><use xlink:href="#a"/><use xlink:href="#b" x="6.996" y="2.146"/><use xlink:href="#8"/><text y="3.841" class="f">#</text><text x="2.004" y="3.841" class="f">1.</text><text x="5.01" y="3.841" class="f">Op</text></svg><svg x="7040"><use xlink:href="#a"/><use xlink:href="#b" x="7.996" y="2.146"/><use xlink:href="#8"/><text y="3.841" class="f">#</text><text x="2.004" y="3.841" class="f">1.</text><text x="5.01" y="3.841" class="f">Ope</text></svg><svg x="7150"><use xlink:href="#a"/><use xlink:href="#b" x="8.996" y="2.146"/><use xlink:href="#8"/><text y="3.841" class="f">#</text><text x="2.004" y="3.841" class="f">1.</text><text x="5.01" y="3.841" class="f">Open</text></svg><svg x="7260"><use xlink:href="#a"/><use xlink:href="#b" x="9.996" y="2.146"/><use xlink:href="#8"/><text y="3.841" class="f">#</text><text x="2.004" y="3.841" class="f">1.</text><text x="5.01" y="3.841" class="f">OpenA</text></svg><svg x="7370"><use xlink:href="#a"/><use xlink:href="#b" x="10.996" y="2.146"/><use xlink:href="#8"/><use xlink:href="#10" y="2.171"/></svg><svg x="7480"><use xlink:href="#a"/><use xlink:href="#b" x="-.004" y="4.317"/><use xlink:href="#8"/><use xlink:href="#10" y="2.171"/></svg><svg x="7590"><use xlink:href="#a"/><use xlink:href="#b" x=".996" y="4.317"/><use xlink:href="#8"/><use xlink:href="#10" y="2.171"/><use xlink:href="#1" y="4.342"/></svg><svg x="7700"><use xlink:href="#a"/><use xlink:href="#b" x="1.996" y="4.317"/><use xlink:href="#8"/><use xlink:href="#10" y="2.171"/><use xlink:href="#1" y="4.342"/></svg><svg x="7810"><use xlink:href="#a"/><use xlink:href="#b" x="2.996" y="4.317"/><use xlink:href="#8"/><use xlink:href="#10" y="2.171"/><text y="6.012" class="f">#</text><text x="2.004" y="6.012" class="f">2</text></svg><svg x="7920"><use xlink:href="#a"/><use xlink:href="#b" x="3.996" y="4.317"/><use xlink:href="#8"/><use xlink:href="#10" y="2.171"/><use xlink:href="#11" y="4.342"/></svg><svg x="8030"><use xlink:href="#a"/><use xlink:href="#b" x="4.996" y="4.317"/><use xlink:href="#8"/><use xlink:href="#10" y="2.171"/><use xlink:href="#11" y="4.342"/></svg><svg x="8140"><use xlink:href="#a"/><use xlink:href="#b" x="5.996" y="4.317"/><use xlink:href="#8"/><use xlink:href="#10" y="2.171"/><text y="6.012" class="f">#</text><text x="2.004" y="6.012" class="f">2.</text><text x="5.01" y="6.012" class="f">C</text></svg><svg x="8250"><use xlink:href="#a"/><use xlink:href="#b" x="6.996" y="4.317"/><use xlink:href="#8"/><use xlink:href="#10" y="2.171"/><text y="6.012" class="f">#</text><text x="2.004" y="6.012" class="f">2.</text><text x="5.01" y="6.012" class="f">Co</text></svg><svg x="8360"><use xlink:href="#a"/><use xlink:href="#b" x="7.996" y="4.317"/><use xlink:href="#8"/><use xlink:href="#10" y="2.171"/><text y="6.012" class="f">#</text><text x="2.004" y="6.012" class="f">2.</text><text x="5.01" y="6.012" class="f">Coh</text></svg><svg x="8470"><use xlink:href="#a"/><use xlink:href="#b" x="8.996" y="4.317"/><use xlink:href="#8"/><use xlink:href="#10" y="2.171"/><text y="6.012" class="f">#</text><text x="2.004" y="6.012" class="f">2.</text><text x="5.01" y="6.012" class="f">Cohe</text></svg><svg x="8580"><use xlink:href="#a"/><use xlink:href="#b" x="9.996" y="4.317"/><use xlink:href="#8"/><use xlink:href="#10" y="2.171"/><text y="6.012" class="f">#</text><text x="2.004" y="6.012" class="f">2.</text><text x="5.01" y="6.012" class="f">Coher</text></svg><svg x="8690"><use xlink:href="#a"/><use xlink:href="#b" x="10.996" y="4.317"/><use xlink:href="#8"/><use xlink:href="#10" y="2.171"/><use xlink:href="#12" y="4.342"/></svg><svg x="8800"><use xlink:href="#a"/><use xlink:href="#b" x="-.004" y="6.488"/><use xlink:href="#8"/><use xlink:href="#10" y="2.171"/><use xlink:href="#12" y="4.342"/></svg><svg x="8910"><use xlink:href="#a"/><use xlink:href="#b" x=".996" y="6.488"/><use xlink:href="#8"/><use xlink:href="#10" y="2.171"/><use xlink:href="#12" y="4.342"/><use xlink:href="#1" y="6.513"/></svg><svg x="9020"><use xlink:href="#a"/><use xlink:href="#b" x="1.996" y="6.488"/><use xlink:href="#8"/><use xlink:href="#10" y="2.171"/><use xlink:href="#12" y="4.342"/><use xlink:href="#1" y="6.513"/></svg><svg x="9130"><use xlink:href="#a"/><use xlink:href="#b" x="2.996" y="6.488"/><use xlink:href="#8"/><use xlink:href="#10" y="2.171"/><use xlink:href="#12" y="4.342"/><text y="8.183" class="f">#</text><text x="2.004" y="8.183" class="f">3</text></svg><svg x="9240"><use xlink:href="#a"/><use xlink:href="#b" x="3.996" y="6.488"/><use xlink:href="#8"/><use xlink:href="#10" y="2.171"/><use xlink:href="#12" y="4.342"/><use xlink:href="#13" y="6.513"/></svg><svg x="9350"><use xlink:href="#a"/><use xlink:href="#b" x="4.996" y="6.488"/><use xlink:href="#8"/><use xlink:href="#10" y="2.171"/><use xlink:href="#12" y="4.342"/><use xlink:href="#13" y="6.513"/></svg><svg x="9460"><use xlink:href="#a"/><use xlink:href="#b" x="5.996" y="6.488"/><use xlink:href="#8"/><use xlink:href="#10" y="2.171"/><use xlink:href="#12" y="4.342"/><text y="8.183" class="f">#</text><text x="2.004" y="8.183" class="f">3.</text><text x="5.01" y="8.183" class="f">G</text></svg><svg x="9570"><use xlink:href="#a"/><use xlink:href="#b" x="6.996" y="6.488"/><use xlink:href="#8"/><use xlink:href="#10" y="2.171"/><use xlink:href="#12" y="4.342"/><text y="8.183" class="f">#</text><text x="2.004" y="8.183" class="f">3.</text><text x="5.01" y="8.183" class="f">Ge</text></svg><svg x="9680"><use xlink:href="#a"/><use xlink:href="#b" x="7.996" y="6.488"/><use xlink:href="#8"/><use xlink:href="#10" y="2.171"/><use xlink:href="#12" y="4.342"/><text y="8.183" class="f">#</text><text x="2.004" y="8.183" class="f">3.</text><text x="5.01" y="8.183" class="f">Gem</text></svg><svg x="9790"><use xlink:href="#a"/><use xlink:href="#b" x="8.996" y="6.488"/><use xlink:href="#8"/><use xlink:href="#10" y="2.171"/><use xlink:href="#12" y="4.342"/><text y="8.183" class="f">#</text><text x="2.004" y="8.183" class="f">3.</text><text x="5.01" y="8.183" class="f">Gemi</text></svg><svg x="9900"><use xlink:href="#a"/><use xlink:href="#b" x="9.996" y="6.488"/><use xlink:href="#8"/><use xlink:href="#10" y="2.171"/><use xlink:href="#12" y="4.342"/><text y="8.183" class="f">#</text><text x="2.004" y="8.183" class="f">3.</text><text x="5.01" y="8.183" class="f">Gemin</text></svg><svg x="10010"><use xlink:href="#a"/><use xlink:href="#b" x="10.996" y="6.488"/><use xlink:href="#8"/><use xlink:href="#10" y="2.171"/><use xlink:href="#12" y="4.342"/><use xlink:href="#14" y="6.513"/></svg><svg x="10120"><use xlink:href="#a"/><use xlink:href="#b" x="-.004" y="8.659"/><use xlink:href="#8"/><use xlink:href="#10" y="2.171"/><use xlink:href="#12" y="4.342"/><use xlink:href="#14" y="6.513"/></svg><svg x="10230"><use xlink:href="#a"/><use xlink:href="#b" x=".996" y="8.659"/><use xlink:href="#8"/><use xlink:href="#10" y="2.171"/><use xlink:href="#12" y="4.342"/><use xlink:href="#14" y="6.513"/><use xlink:href="#1" y="8.684"/></svg><svg x="10340"><use xlink:href="#a"/><use xlink:href="#b" x="1.996" y="8.659"/><use xlink:href="#8"/><use xlink:href="#10" y="2.171"/><use xlink:href="#12" y="4.342"/><use xlink:href="#14" y="6.513"/><use xlink:href="#1" y="8.684"/></svg><svg x="10450"><use xlink:href="#a"/><use xlink:href="#b" x="2.996" y="8.659"/><use xlink:href="#8"/><use xlink:href="#10" y="2.171"/><use xlink:href="#12" y="4.342"/><use xlink:href="#14" y="6.513"/><text y="10.354" class="f">#</text><text x="2.004" y="10.354" class="f">4</text></svg><svg x="10560"><use xlink:href="#a"/><use xlink:href="#b" x="3.996" y="8.659"/><use xlink:href="#8"/><use xlink:href="#10" y="2.171"/><use xlink:href="#12" y="4.342"/><use xlink:href="#14" y="6.513"/><use xlink:href="#15" y="8.684"/></svg><svg x="10670"><use xlink:href="#a"/><use xlink:href="#b" x="4.996" y="8.659"/><use xlink:href="#8"/><use xlink:href="#10" y="2.171"/><use xlink:href="#12" y="4.342"/><use xlink:href="#14" y="6.513"/><use xlink:href="#15" y="8.684"/></svg><svg x="10780"><use xlink:href="#a"/><use xlink:href="#b" x="5.996" y="8.659"/><use xlink:href="#8"/><use xlink:href="#10" y="2.171"/><use xlink:href="#12" y="4.342"/><use xlink:href="#14" y="6.513"/><text y="10.354" class="f">#</text><text x="2.004" y="10.354" class="f">4.</text><text x="5.01" y="10.354" class="f">M</text></svg><svg x="10890"><use xlink:href="#a"/><use xlink:href="#b" x="6.996" y="8.659"/><use xlink:href="#8"/><use xlink:href="#10" y="2.171"/><use xlink:href="#12" y="4.342"/><use xlink:href="#14" y="6.513"/><text y="10.354" class="f">#</text><text x="2.004" y="10.354" class="f">4.</text><text x="5.01" y="10.354" class="f">Ma</text></svg><svg x="11000"><use xlink:href="#a"/><use xlink:href="#b" x="7.996" y="8.659"/><use xlink:href="#8"/><use xlink:href="#10" y="2.171"/><use xlink:href="#12" y="4.342"/><use xlink:href="#14" y="6.513"/><text y="10.354" class="f">#</text><text x="2.004" y="10.354" class="f">4.</text><text x="5.01" y="10.354" class="f">Mat</text></svg><svg x="11110"><use xlink:href="#a"/><use xlink:href="#b" x="8.996" y="8.659"/><use xlink:href="#8"/><use xlink:href="#10" y="2.171"/><use xlink:href="#12" y="4.342"/><use xlink:href="#14" y="6.513"/><text y="10.354" class="f">#</text><text x="2.004" y="10.354" class="f">4.</text><text x="5.01" y="10.354" class="f">Matr</text></svg><svg x="11220"><use xlink:href="#a"/><use xlink:href="#b" x="9.996" y="8.659"/><use xlink:href="#8"/><use xlink:href="#10" y="2.171"/><use xlink:href="#12" y="4.342"/><use xlink:href="#14" y="6.513"/><text y="10.354" class="f">#</text><text x="2.004" y="10.354" class="f">4.</text><text x="5.01" y="10.354" class="f">Matry</text></svg><svg x="11330"><use xlink:href="#a"/><use xlink:href="#b" x="10.996" y="8.659"/><use xlink:href="#8"/><use xlink:href="#10" y="2.171"/><use xlink:href="#12" y="4.342"/><use xlink:href="#14" y="6.513"/><text y="10.354" class="f">#</text><text x="2.004" y="10.354" class="f">4.</text><text x="5.01" y="10.354" class="f">Matryo</text></svg><svg x="11440"><use xlink:href="#a"/><use xlink:href="#b" x="11.996" y="8.659"/><use xlink:href="#8"/><use xlink:href="#10" y="2.171"/><use xlink:href="#12" y="4.342"/><use xlink:href="#14" y="6.513"/><text y="10.354" class="f">#</text><text x="2.004" y="10.354" class="f">4.</text><text x="5.01" y="10.354" class="f">Matryos</text></svg><svg x="11550"><use xlink:href="#a"/><use xlink:href="#b" x="12.996" y="8.659"/><use xlink:href="#8"/><use xlink:href="#10" y="2.171"/><use xlink:href="#12" y="4.342"/><use xlink:href="#14" y="6.513"/><text y="10.354" class="f">#</text><text x="2.004" y="10.354" class="f">4.</text><text x="5.01" y="10.354" class="f">Matryosh</text></svg><svg x="11660"><use xlink:href="#a"/><use xlink:href="#b" x="13.996" y="8.659"/><use xlink:href="#8"/><use xlink:href="#10" y="2.171"/><use xlink:href="#12" y="4.342"/><use xlink:href="#14" y="6.513"/><text y="10.354" class="f">#</text><text x="2.004" y="10.354" class="f">4.</text><text x="5.01" y="10.354" class="f">Matryoshk</text></svg><svg x="11770"><use xlink:href="#a"/><use xlink:href="#b" x="14.996" y="8.659"/><use xlink:href="#8"/><use xlink:href="#10" y="2.171"/><use xlink:href="#12" y="4.342"/><use xlink:href="#14" y="6.513"/><use xlink:href="#16" y="8.684"/></svg><svg x="11880"><use xlink:href="#a"/><use xlink:href="#b" x="15.996" y="8.659"/><use xlink:href="#8"/><use xlink:href="#10" y="2.171"/><use xlink:href="#12" y="4.342"/><use xlink:href="#14" y="6.513"/><use xlink:href="#16" y="8.684"/></svg><svg x="11990"><use xlink:href="#a"/><use xlink:href="#b" x="16.996" y="8.659"/><use xlink:href="#8"/><use xlink:href="#10" y="2.171"/><use xlink:href="#12" y="4.342"/><use xlink:href="#14" y="6.513"/><text y="10.354" class="f">#</text><text x="2.004" y="10.354" class="f">4.</text><text x="5.01" y="10.354" class="f">Matryoshka</text><text x="16.032" y="10.354" class="f">t</text></svg><svg x="12100"><use xlink:href="#a"/><use xlink:href="#b" x="17.996" y="8.659"/><use xlink:href="#8"/><use xlink:href="#10" y="2.171"/><use xlink:href="#12" y="4.342"/><use xlink:href="#14" y="6.513"/><text y="10.354" class="f">#</text><text x="2.004" y="10.354" class="f">4.</text><text x="5.01" y="10.354" class="f">Matryoshka</text><text x="16.032" y="10.354" class="f">tr</text></svg><svg x="12210"><use xlink:href="#a"/><use xlink:href="#b" x="18.996" y="8.659"/><use xlink:href="#8"/><use xlink:href="#10" y="2.171"/><use xlink:href="#12" y="4.342"/><use xlink:href="#14" y="6.513"/><text y="10.354" class="f">#</text><text x="2.004" y="10.354" class="f">4.</text><text x="5.01" y="10.354" class="f">Matryoshka</text><text x="16.032" y="10.354" class="f">tru</text></svg><svg x="12320"><use xlink:href="#a"/><use xlink:href="#b" x="19.996" y="8.659"/><use xlink:href="#8"/><use xlink:href="#10" y="2.171"/><use xlink:href="#12" y="4.342"/><use xlink:href="#14" y="6.513"/><text y="10.354" class="f">#</text><text x="2.004" y="10.354" class="f">4.</text><text x="5.01" y="10.354" class="f">Matryoshka</text><text x="16.032" y="10.354" class="f">trun</text></svg><svg x="12430"><use xlink:href="#a"/><use xlink:href="#b" x="20.996" y="8.659"/><use xlink:href="#8"/><use xlink:href="#10" y="2.171"/><use xlink:href="#12" y="4.342"/><use xlink:href="#14" y="6.513"/><text y="10.354" class="f">#</text><text x="2.004" y="10.354" class="f">4.</text><text x="5.01" y="10.354" class="f">Matryoshka</text><text x="16.032" y="10.354" class="f">trunc</text></svg><svg x="12540"><use xlink:href="#a"/><use xlink:href="#b" x="21.996" y="8.659"/><use xlink:href="#8"/><use xlink:href="#10" y="2.171"/><use xlink:href="#12" y="4.342"/><use xlink:href="#14" y="6.513"/><text y="10.354" class="f">#</text><text x="2.004" y="10.354" class="f">4.</text><text x="5.01" y="10.354" class="f">Matryoshka</text><text x="16.032" y="10.354" class="f">trunca</text></svg><svg x="12650"><use xlink:href="#a"/><use xlink:href="#b" x="22.996" y="8.659"/><use xlink:href="#8"/><use xlink:href="#10" y="2.171"/><use xlink:href="#12" y="4.342"/><use xlink:href="#14" y="6.513"/><text y="10.354" class="f">#</text><text x="2.004" y="10.354" class="f">4.</text><text x="5.01" y="10.354" class="f">Matryoshka</text><text x="16.032" y="10.354" class="f">truncat</text></svg><svg x="12760"><use xlink:href="#a"/><use xlink:href="#b" x="23.996" y="8.659"/><use xlink:href="#8"/><use xlink:href="#10" y="2.171"/><use xlink:href="#12" y="4.342"/><use xlink:href="#14" y="6.513"/><text y="10.354" class="f">#</text><text x="2.004" y="10.354" class="f">4.</text><text x="5.01" y="10.354" class="f">Matryoshka</text><text x="16.032" y="10.354" class="f">truncati</text></svg><svg x="12870"><use xlink:href="#a"/><use xlink:href="#b" x="24.996" y="8.659"/><use xlink:href="#8"/><use xlink:href="#10" y="2.171"/><use xlink:href="#12" y="4.342"/><use xlink:href="#14" y="6.513"/><text y="10.354" class="f">#</text><text x="2.004" y="10.354" class="f">4.</text><text x="5.01" y="10.354" class="f">Matryoshka</text><text x="16.032" y="10.354" class="f">truncatio</text></svg><svg x="12980"><use xlink:href="#a"/><use xlink:href="#b" x="25.996" y="8.659"/><use xlink:href="#8"/><use xlink:href="#10" y="2.171"/><use xlink:href="#12" y="4.342"/><use xlink:href="#14" y="6.513"/><use xlink:href="#17" y="8.684"/></svg><svg x="13090"><use xlink:href="#a"/><use xlink:href="#b" x="-.004" y="10.83"/><use xlink:href="#8"/><use xlink:href="#10" y="2.171"/><use xlink:href="#12" y="4.342"/><use xlink:href="#14" y="6.513"/><use xlink:href="#17" y="8.684"/></svg><svg x="13200"><use xlink:href="#a"/><use xlink:href="#b" x="-.004" y="13.001"/><use xlink:href="#8"/><use xlink:href="#10" y="2.171"/><use xlink:href="#12" y="4.342"/><use xlink:href="#14" y="6.513"/><use xlink:href="#17" y="8.684"/><text y="12.525" class="k">{</text><text x="1.002" y="12.525" style="white-space:pre" fill="#71bef2" font-weight="700">&quot;dim&quot;</text><text x="6.012" y="12.525" class="k">:</text><text x="7.014" y="12.525" class="f">128</text><text x="10.02" y="12.525" class="k">}</text></svg></svg></g></g></svg></svg>